<svg xmlns="http://www.w3.org/2000/svg" width="1100" height="720" viewBox="0 0 1100 720">
  <rect width="100%" height="100%" fill="#ffffff"/>
  <text x="30" y="42" font-family="Arial, sans-serif" font-size="24" font-weight="700">Gemshorn CNC Split-Wood Body - Soprano C Starter</text>
  <text x="30" y="68" font-family="Arial, sans-serif" font-size="13">Generated 2026-05-06 | Units: inches | Pre-CAM drawing, verify in CAD before toolpathing</text>

  <rect x="35" y="92" width="1030" height="560" fill="none" stroke="#111" stroke-width="1"/>
  <text x="60" y="125" font-family="Arial" font-size="16" font-weight="700">Plan View - Open Halves</text>

  <path d="M 150 255 C 270 190, 500 205, 735 250 C 510 305, 280 315, 150 255 Z" fill="#f3d6a4" stroke="#111" stroke-width="2"/>
  <path d="M 160 255 C 285 222, 500 225, 708 252 C 500 282, 290 286, 160 255 Z" fill="#ffffff" stroke="#333" stroke-dasharray="7 5" stroke-width="2"/>
  <path d="M 150 455 C 270 390, 500 405, 735 450 C 510 505, 280 515, 150 455 Z" fill="#f3d6a4" stroke="#111" stroke-width="2"/>
  <path d="M 160 455 C 285 422, 500 425, 708 452 C 500 482, 290 486, 160 455 Z" fill="#ffffff" stroke="#333" stroke-dasharray="7 5" stroke-width="2"/>

  <circle cx="205" cy="160" r="13" fill="#ffffff" stroke="#111" stroke-width="2"/>
  <circle cx="690" cy="160" r="13" fill="#ffffff" stroke="#111" stroke-width="2"/>
  <circle cx="205" cy="550" r="13" fill="#ffffff" stroke="#111" stroke-width="2"/>
  <circle cx="690" cy="550" r="13" fill="#ffffff" stroke="#111" stroke-width="2"/>
  <text x="725" y="160" font-family="Arial" font-size="13">1/4 in registration dowels outside body outline</text>

  <line x1="150" y1="330" x2="735" y2="330" stroke="#111" stroke-width="2"/>
  <text x="350" y="350" font-family="Arial" font-size="12">Datum B: routed centerline curve</text>
  <line x1="150" y1="590" x2="735" y2="590" stroke="#111" stroke-width="2"/>
  <text x="335" y="612" font-family="Arial" font-size="12">Finished C5 body envelope: about 10.5 in long, 1.76 in wide OD</text>

  <text x="810" y="128" font-family="Arial" font-size="16" font-weight="700">Operation Notes</text>
  <text x="810" y="160" font-family="Arial" font-size="13">A: Face skim mating surfaces</text>
  <text x="810" y="186" font-family="Arial" font-size="13">B: Drill dowel holes</text>
  <text x="810" y="212" font-family="Arial" font-size="13">C: Route mirrored cavity halves</text>
  <text x="810" y="238" font-family="Arial" font-size="13">D: Engrave hole/window pilots</text>
  <text x="810" y="264" font-family="Arial" font-size="13">E: Dry-fit and leak test</text>
  <text x="810" y="290" font-family="Arial" font-size="13">F: Glue, shape exterior, voice</text>

  <text x="810" y="350" font-family="Arial" font-size="16" font-weight="700">Tolerances</text>
  <text x="810" y="380" font-family="Arial" font-size="13">Registration holes: +/-0.003 in</text>
  <text x="810" y="406" font-family="Arial" font-size="13">Cavity wall target: 0.150 in min</text>
  <text x="810" y="432" font-family="Arial" font-size="13">Tone holes: undersize, tune by pitch</text>
  <text x="810" y="458" font-family="Arial" font-size="13">Glue seam: airtight before exterior shaping</text>

  <rect x="60" y="645" width="980" height="38" fill="#f5f5f5" stroke="#111"/>
  <text x="75" y="670" font-family="Arial" font-size="12">Title block: Gemshorn CNC split-wood body | Scale: review drawing | Material: maple/cherry/pear/boxwood | Rev: v4.2 pre-CAM</text>
</svg>
