<svg xmlns="http://www.w3.org/2000/svg" width="1100" height="720" viewBox="0 0 1100 720">
  <rect width="100%" height="100%" fill="#ffffff"/>
  <text x="24" y="34" font-family="Arial, sans-serif" font-size="22" font-weight="700">Visual BOM Plate - Slip-Cast Gemshorn Family</text>
  <text x="840" y="696" font-family="Arial, sans-serif" font-size="12">Generated 2026-05-02 | Units: inches</text>

  <rect x="35" y="60" width="1030" height="620" fill="#fbfbfb" stroke="#111"/>
  <text x="60" y="92" font-family="Arial" font-size="15" font-weight="700">Hero: ceramic gemshorn family scale</text>
  <path d="M 80 180 C 210 130, 390 145, 520 190" fill="none" stroke="#995c2d" stroke-width="38" stroke-linecap="round"/>
  <path d="M 70 255 C 180 220, 330 228, 430 260" fill="none" stroke="#b7773b" stroke-width="25" stroke-linecap="round"/>
  <rect x="610" y="95" width="390" height="120" fill="#f1f1f1" stroke="#111"/>
  <text x="635" y="130" font-family="Arial" font-size="14">1. Plaster mold halves</text>
  <text x="635" y="158" font-family="Arial" font-size="14">2. Sealed master pattern</text>
  <text x="635" y="186" font-family="Arial" font-size="14">3. Casting slip and shrinkage bars</text>
  <text x="60" y="340" font-family="Arial" font-size="13" font-weight="700">Item</text>
  <text x="160" y="340" font-family="Arial" font-size="13" font-weight="700">Part</text>
  <text x="520" y="340" font-family="Arial" font-size="13" font-weight="700">Qty</text>
  <text x="630" y="340" font-family="Arial" font-size="13" font-weight="700">Make/Buy</text>
  <text x="780" y="340" font-family="Arial" font-size="13" font-weight="700">Drawing</text>
  <rect x="48" y="359" width="970" height="34" fill="#ffffff" stroke="#ddd"/>
  <text x="60" y="382" font-family="Arial" font-size="12">1</text>
  <text x="160" y="382" font-family="Arial" font-size="12">Ceramic body</text>
  <text x="520" y="382" font-family="Arial" font-size="12">1/inst</text>
  <text x="630" y="382" font-family="Arial" font-size="12">make</text>
  <text x="780" y="382" font-family="Arial" font-size="12">body-section</text>
  <rect x="48" y="401" width="970" height="34" fill="#f4f4f4" stroke="#ddd"/>
  <text x="60" y="424" font-family="Arial" font-size="12">2</text>
  <text x="160" y="424" font-family="Arial" font-size="12">Fipple/block</text>
  <text x="520" y="424" font-family="Arial" font-size="12">1/inst</text>
  <text x="630" y="424" font-family="Arial" font-size="12">make</text>
  <text x="780" y="424" font-family="Arial" font-size="12">voicing-detail</text>
  <rect x="48" y="443" width="970" height="34" fill="#ffffff" stroke="#ddd"/>
  <text x="60" y="466" font-family="Arial" font-size="12">3</text>
  <text x="160" y="466" font-family="Arial" font-size="12">Seal wrap</text>
  <text x="520" y="466" font-family="Arial" font-size="12">1/inst</text>
  <text x="630" y="466" font-family="Arial" font-size="12">buy</text>
  <text x="780" y="466" font-family="Arial" font-size="12">voicing-detail</text>
  <rect x="48" y="485" width="970" height="34" fill="#f4f4f4" stroke="#ddd"/>
  <text x="60" y="508" font-family="Arial" font-size="12">4</text>
  <text x="160" y="508" font-family="Arial" font-size="12">Tuning collar</text>
  <text x="520" y="508" font-family="Arial" font-size="12">optional</text>
  <text x="630" y="508" font-family="Arial" font-size="12">buy/make</text>
  <text x="780" y="508" font-family="Arial" font-size="12">voicing-detail</text>
  <rect x="48" y="527" width="970" height="34" fill="#ffffff" stroke="#ddd"/>
  <text x="60" y="550" font-family="Arial" font-size="12">5</text>
  <text x="160" y="550" font-family="Arial" font-size="12">Tuning kit</text>
  <text x="520" y="550" font-family="Arial" font-size="12">1 shop</text>
  <text x="630" y="550" font-family="Arial" font-size="12">buy</text>
  <text x="780" y="550" font-family="Arial" font-size="12">validation</text>
  <text x="60" y="640" font-family="Arial" font-size="12">Image placeholders: replace with real master, mold, cast body, block, and tuning photos after first prototype.</text>
</svg>
