<svg xmlns="http://www.w3.org/2000/svg" width="980" height="360" viewBox="0 0 980 360">
  <rect width="100%" height="100%" fill="#ffffff"/>
  <text x="24" y="34" font-family="Arial, sans-serif" font-size="22" font-weight="700">Hole Layout Template - Soprano C Fired Dimensions</text>
  <text x="720" y="336" font-family="Arial, sans-serif" font-size="12">Generated 2026-05-02 | Units: inches</text>

  <line x1="130" y1="170" x2="703.5" y2="170" stroke="#111" stroke-width="2"/>
  <rect x="110" y="125" width="40" height="90" fill="#f5efe4" stroke="#111"/>
  <text x="96" y="112" font-family="Arial" font-size="12">Datum A labium</text>
  <circle cx="404.7" cy="170.0" r="3.7" fill="#d9ecff" stroke="#111" stroke-width="1.5"/>
  <text x="386.7" y="204.0" font-family="Arial" font-size="11">H1</text>
  <text x="376.7" y="218.0" font-family="Arial" font-size="10">0.121 in</text>
  <circle cx="373.2" cy="170.0" r="4.3" fill="#d9ecff" stroke="#111" stroke-width="1.5"/>
  <text x="355.2" y="204.0" font-family="Arial" font-size="11">H2</text>
  <text x="345.2" y="218.0" font-family="Arial" font-size="10">0.138 in</text>
  <circle cx="341.6" cy="170.0" r="3.5" fill="#d9ecff" stroke="#111" stroke-width="1.5"/>
  <text x="323.6" y="204.0" font-family="Arial" font-size="11">H3</text>
  <text x="313.6" y="218.0" font-family="Arial" font-size="10">0.102 in</text>
  <circle cx="311.2" cy="170.0" r="5.3" fill="#d9ecff" stroke="#111" stroke-width="1.5"/>
  <text x="293.2" y="204.0" font-family="Arial" font-size="11">H4</text>
  <text x="283.2" y="218.0" font-family="Arial" font-size="10">0.170 in</text>
  <circle cx="280.8" cy="170.0" r="6.1" fill="#d9ecff" stroke="#111" stroke-width="1.5"/>
  <text x="262.8" y="204.0" font-family="Arial" font-size="11">H5</text>
  <text x="252.8" y="218.0" font-family="Arial" font-size="10">0.196 in</text>
  <circle cx="250.4" cy="170.0" r="7.0" fill="#d9ecff" stroke="#111" stroke-width="1.5"/>
  <text x="232.4" y="204.0" font-family="Arial" font-size="11">H6</text>
  <text x="222.4" y="218.0" font-family="Arial" font-size="10">0.227 in</text>
  <circle cx="220.0" cy="170.0" r="5.1" fill="#d9ecff" stroke="#111" stroke-width="1.5"/>
  <text x="202.0" y="204.0" font-family="Arial" font-size="11">H7</text>
  <text x="192.0" y="218.0" font-family="Arial" font-size="10">0.164 in</text>
  <circle cx="220.0" cy="132.0" r="8.8" fill="#ffffff" stroke="#111" stroke-width="1.5"/>
  <text x="202.0" y="166.0" font-family="Arial" font-size="11">T1</text>
  <text x="192.0" y="180.0" font-family="Arial" font-size="10">0.284 in</text>
  <text x="120" y="305" font-family="Arial" font-size="12">Positions are measured from Datum A along the centerline. Use greenware drill-start diameters from CSV before firing.</text>
</svg>
